<?xml version="1.0" encoding="UTF-8"?> <svg xmlns="http://www.w3.org/2000/svg" id="OL" viewBox="0 0 512 512"><defs><style> .cls-1 { fill: #ffffff; } </style></defs><path class="cls-1" d="m458.92,261.27l9.93-12.54-25.08-19.87-9.94,12.54c-4.58,5.79-9.68,11.3-15.23,16.51l-.9-.9-11.28,11.28c-38.27,29.74-92.71,47.31-150.43,47.31s-112.16-17.57-150.43-47.31l-11.28-11.28-.9.9c-5.55-5.21-10.65-10.72-15.23-16.51l-9.94-12.54-25.08,19.87,9.93,12.54c5.32,6.72,11.25,13.15,17.69,19.26l-34.09,34.09,22.63,22.63,36.47-36.47c12.9,8.93,27.14,16.79,42.45,23.38,3.25,1.4,6.55,2.72,9.89,3.99l-15.08,48.27,30.54,9.54,15.03-48.08c19.75,5.1,40.41,8.25,61.4,9.31v50.13h32v-50.13c20.99-1.06,41.65-4.21,61.4-9.31l15.03,48.08,30.54-9.54-15.08-48.27c3.33-1.28,6.64-2.6,9.89-3.99,15.31-6.59,29.55-14.45,42.45-23.38l36.47,36.47,22.63-22.63-34.09-34.09c6.45-6.11,12.37-12.54,17.69-19.26Z"></path></svg> 